<svg width="500" height="209" viewBox="0 0 500 209" fill="none" xmlns="http://www.w3.org/2000/svg">
<rect width="500" height="209" fill="white"/>
<path d="M156.578 69.138H165.625V117.466C165.625 123.997 163.656 129.107 159.719 132.794C155.812 136.482 150.594 138.326 144.062 138.326C137.281 138.326 132 136.591 128.219 133.122C124.438 129.654 122.547 124.794 122.547 118.544H131.547C131.547 122.451 132.609 125.497 134.734 127.685C136.891 129.872 140 130.966 144.062 130.966C147.781 130.966 150.781 129.794 153.062 127.451C155.375 125.107 156.547 121.826 156.578 117.607V69.138ZM231.156 115.732C230.312 122.951 227.641 128.529 223.141 132.466C218.672 136.372 212.719 138.326 205.281 138.326C197.219 138.326 190.75 135.435 185.875 129.654C181.031 123.872 178.609 116.138 178.609 106.451V99.888C178.609 93.5443 179.734 87.9661 181.984 83.1536C184.266 78.3411 187.484 74.6536 191.641 72.0911C195.797 69.4974 200.609 68.2005 206.078 68.2005C213.328 68.2005 219.141 70.2318 223.516 74.2943C227.891 78.3255 230.438 83.9193 231.156 91.0755H222.109C221.328 85.638 219.625 81.7005 217 79.263C214.406 76.8255 210.766 75.6068 206.078 75.6068C200.328 75.6068 195.812 77.7318 192.531 81.9818C189.281 86.2318 187.656 92.2786 187.656 100.122V106.732C187.656 114.138 189.203 120.029 192.297 124.404C195.391 128.779 199.719 130.966 205.281 130.966C210.281 130.966 214.109 129.841 216.766 127.591C219.453 125.31 221.234 121.357 222.109 115.732H231.156ZM252.484 110.669V137.388H243.484V69.138H268.656C276.125 69.138 281.969 71.0443 286.188 74.8568C290.438 78.6693 292.562 83.7161 292.562 89.9974C292.562 96.6224 290.484 101.732 286.328 105.326C282.203 108.888 276.281 110.669 268.562 110.669H252.484ZM252.484 103.31H268.656C273.469 103.31 277.156 102.185 279.719 99.9349C282.281 97.6536 283.562 94.3724 283.562 90.0911C283.562 86.0286 282.281 82.7786 279.719 80.3411C277.156 77.9036 273.641 76.638 269.172 76.5443H252.484V103.31ZM315.672 69.138L337.984 124.826L360.297 69.138H371.969V137.388H362.969V110.81L363.812 82.1224L341.406 137.388H334.516L312.156 82.263L313.047 110.81V137.388H304.047V69.138H315.672Z" fill="black"/>
</svg>
